<?xml version="1.0" encoding="utf-8"?>
<!-- Generator: Adobe Illustrator 27.0.1, SVG Export Plug-In . SVG Version: 6.00 Build 0)  -->
<svg version="1.1" xmlns="http://www.w3.org/2000/svg" xmlns:xlink="http://www.w3.org/1999/xlink" x="0px" y="0px"
	 viewBox="0 0 500 500" style="enable-background:new 0 0 500 500;" xml:space="preserve">
<style type="text/css">
	.st0{fill:#24283B;}
	.st1{fill:#FFFFFF;}
</style>
<g id="cntrl_kcap">
	<g>
		<rect x="13" y="193" class="st0" width="183.05" height="94"/>
	</g>
</g>
<g id="v_kcap">
	<g>
		<rect x="270.19" y="193" class="st0" width="86.35" height="94"/>
	</g>
	<g>
		<path class="st1" d="M59.07,232.79c1.01-0.99,2.2-1.76,3.57-2.3c1.37-0.54,2.89-0.81,4.54-0.81c1.63,0,3.15,0.31,4.57,0.92
			c1.42,0.62,2.71,1.54,3.89,2.77l3.8-3.56c-1.48-1.74-3.29-3.06-5.43-3.94c-2.14-0.89-4.51-1.33-7.1-1.33
			c-2.44,0-4.69,0.4-6.74,1.19c-2.05,0.8-3.84,1.93-5.38,3.4c-1.54,1.47-2.73,3.18-3.57,5.14c-0.84,1.95-1.27,4.11-1.27,6.49
			c0,2.37,0.42,4.54,1.27,6.49c0.84,1.95,2.03,3.66,3.55,5.14c1.52,1.47,3.31,2.61,5.36,3.4c2.05,0.79,4.3,1.19,6.74,1.19
			c2.62,0,5-0.45,7.14-1.35c2.14-0.9,3.95-2.22,5.43-3.96l-3.8-3.56c-1.18,1.26-2.47,2.2-3.89,2.82c-1.42,0.62-2.94,0.92-4.57,0.92
			c-1.66,0-3.17-0.27-4.54-0.81c-1.37-0.54-2.56-1.31-3.57-2.3c-1.01-0.99-1.8-2.16-2.37-3.51c-0.57-1.35-0.86-2.84-0.86-4.46
			s0.29-3.11,0.86-4.46C57.26,234.96,58.06,233.78,59.07,232.79z"/>
		<path class="st1" d="M103.42,233.29c-1.49-0.75-3.22-1.13-5.18-1.13c-2.11,0-3.97,0.42-5.58,1.26c-1.08,0.56-1.97,1.3-2.69,2.17
			v-3.12h-5.38v24.06h5.61v-12.16c0-1.62,0.28-2.97,0.84-4.03c0.56-1.07,1.35-1.87,2.37-2.41c1.02-0.54,2.2-0.81,3.53-0.81
			c1.84,0,3.26,0.53,4.25,1.58c0.99,1.05,1.49,2.64,1.49,4.78v13.06h5.65v-13.78c0-2.43-0.45-4.43-1.33-5.99
			C106.1,235.2,104.91,234.04,103.42,233.29z"/>
		<path class="st1" d="M125.32,252.21c-1.08,0-1.93-0.32-2.53-0.95c-0.6-0.63-0.9-1.52-0.9-2.66v-11.44h6.51v-4.5h-6.51v-5.5h-5.61
			v5.5h-3.98v4.5h3.98v11.62c0,2.64,0.72,4.65,2.17,6.01c1.45,1.37,3.5,2.05,6.15,2.05c1,0,1.97-0.13,2.94-0.41
			c0.96-0.27,1.79-0.68,2.49-1.22l-1.63-4.01C127.58,251.88,126.56,252.21,125.32,252.21z"/>
		<path class="st1" d="M140.11,235.98v-3.5h-5.38v24.06h5.61v-11.62c0-2.52,0.63-4.4,1.9-5.63c1.27-1.23,2.98-1.85,5.15-1.85
			c0.18,0,0.38,0.01,0.59,0.02c0.21,0.02,0.42,0.04,0.63,0.07v-5.36c-2.26,0-4.17,0.43-5.74,1.28
			C141.71,234.08,140.79,234.93,140.11,235.98z"/>
		<rect x="153.49" y="223.11" class="st1" width="5.61" height="33.42"/>
		<polygon class="st1" points="324.23,224.41 313.53,248.68 303.03,224.41 296.65,224.41 310.49,255.94 316.28,255.94 
			330.07,224.41 		"/>
	</g>
</g>
<g id="outletters">
	<g>
		<polygon class="st0" points="234.78,231.92 229.99,231.92 229.99,239.8 221.94,239.8 221.94,244.31 229.99,244.31 229.99,252.19 
			234.78,252.19 234.78,244.31 242.78,244.31 242.78,239.8 234.78,239.8 		"/>
		<path class="st0" d="M376.32,247.4c0,1.4-0.24,2.57-0.71,3.51s-1.15,1.66-2.02,2.13c-0.87,0.47-1.89,0.71-3.05,0.71
			c-1.56,0-2.77-0.47-3.65-1.4s-1.31-2.34-1.31-4.2v-11.41h-4.99v12.04c0,2.11,0.39,3.85,1.17,5.23s1.86,2.41,3.23,3.08
			c1.37,0.67,2.96,1.01,4.75,1.01c1.64,0,3.14-0.37,4.52-1.11c0.92-0.49,1.67-1.13,2.3-1.9v2.72h4.72v-21.08h-4.95V247.4z"/>
		<path class="st0" d="M396.37,254.03c-0.95,0-1.69-0.28-2.22-0.83s-0.79-1.33-0.79-2.33v-10.03h5.71v-3.95h-5.71v-4.82h-4.91v4.82
			h-3.49v3.95h3.49v10.19c0,2.32,0.63,4.07,1.9,5.27c1.27,1.2,3.06,1.8,5.39,1.8c0.87,0,1.73-0.12,2.58-0.36
			c0.85-0.24,1.57-0.59,2.18-1.07l-1.43-3.51C398.35,253.74,397.45,254.03,396.37,254.03z"/>
		<path class="st0" d="M412.65,254.03c-0.95,0-1.69-0.28-2.22-0.83s-0.79-1.33-0.79-2.33v-10.03h5.71v-3.95h-5.71v-4.82h-4.91v4.82
			h-3.49v3.95h3.49v10.19c0,2.32,0.63,4.07,1.9,5.27c1.27,1.2,3.06,1.8,5.39,1.8c0.87,0,1.73-0.12,2.58-0.36
			c0.85-0.24,1.57-0.59,2.18-1.07l-1.43-3.51C414.63,253.74,413.74,254.03,412.65,254.03z"/>
		<path class="st0" d="M435.5,237.87c-1.7-0.93-3.65-1.4-5.84-1.4c-2.17,0-4.09,0.47-5.79,1.4c-1.69,0.93-3.02,2.2-4,3.81
			c-0.98,1.61-1.47,3.47-1.47,5.61c0,2.08,0.49,3.94,1.47,5.57c0.98,1.63,2.32,2.92,4.02,3.85c1.7,0.93,3.62,1.4,5.76,1.4
			c2.17,0,4.11-0.47,5.83-1.4c1.72-0.93,3.06-2.21,4.02-3.83c0.96-1.62,1.45-3.48,1.45-5.59c0-2.13-0.48-4-1.45-5.61
			C438.53,240.07,437.2,238.8,435.5,237.87z M435.14,250.77c-0.54,1.01-1.29,1.79-2.24,2.33c-0.95,0.54-2.04,0.81-3.25,0.81
			c-1.16,0-2.22-0.27-3.17-0.81c-0.95-0.54-1.7-1.32-2.26-2.33c-0.56-1.01-0.83-2.18-0.83-3.49c0-1.34,0.28-2.51,0.83-3.49
			c0.55-0.99,1.31-1.75,2.26-2.29c0.95-0.54,2.02-0.81,3.21-0.81s2.26,0.27,3.21,0.81c0.95,0.54,1.7,1.3,2.24,2.29
			c0.54,0.99,0.81,2.15,0.81,3.49C435.95,248.6,435.68,249.76,435.14,250.77z"/>
		<path class="st0" d="M462.24,237.45c-1.31-0.66-2.82-0.99-4.54-0.99c-1.85,0-3.48,0.37-4.89,1.11c-0.95,0.49-1.73,1.14-2.36,1.9
			v-2.73h-4.71v21.08h4.91v-10.66c0-1.42,0.24-2.6,0.73-3.53c0.49-0.93,1.18-1.64,2.08-2.11c0.9-0.47,1.93-0.71,3.09-0.71
			c1.61,0,2.85,0.46,3.72,1.38c0.87,0.92,1.31,2.32,1.31,4.19v11.45h4.95v-12.08c0-2.13-0.39-3.88-1.17-5.25
			C464.59,239.12,463.55,238.11,462.24,237.45z"/>
		<path class="st0" d="M488.26,248.7c-0.48-0.74-1.1-1.31-1.88-1.72c-0.78-0.41-1.63-0.72-2.56-0.95c-0.92-0.22-1.86-0.41-2.79-0.55
			c-0.94-0.14-1.79-0.3-2.56-0.47c-0.77-0.17-1.39-0.41-1.86-0.73s-0.71-0.79-0.71-1.42c0-0.68,0.37-1.24,1.11-1.68
			c0.74-0.43,1.85-0.65,3.33-0.65c1,0,2.02,0.11,3.05,0.34s2.03,0.63,3.01,1.2l1.94-3.75c-0.98-0.58-2.2-1.03-3.67-1.36
			c-1.47-0.33-2.9-0.49-4.3-0.49c-1.9,0-3.55,0.28-4.93,0.83s-2.46,1.32-3.23,2.31c-0.77,0.99-1.15,2.14-1.15,3.45
			c0,1.24,0.24,2.22,0.71,2.96c0.48,0.74,1.1,1.32,1.86,1.76c0.77,0.43,1.62,0.76,2.56,0.99c0.94,0.22,1.88,0.4,2.81,0.53
			c0.94,0.13,1.79,0.28,2.56,0.43c0.77,0.16,1.39,0.39,1.86,0.69c0.48,0.3,0.71,0.74,0.71,1.32c0,0.71-0.35,1.27-1.05,1.68
			c-0.7,0.41-1.82,0.61-3.35,0.61c-1.35,0-2.68-0.19-4-0.57s-2.46-0.88-3.41-1.48l-1.9,3.75c0.98,0.66,2.27,1.22,3.88,1.68
			c1.61,0.46,3.31,0.69,5.11,0.69c1.98,0,3.68-0.27,5.09-0.81c1.41-0.54,2.51-1.29,3.29-2.25c0.78-0.96,1.17-2.11,1.17-3.46
			C488.97,250.4,488.73,249.44,488.26,248.7z"/>
	</g>
</g>
</svg>
